<svg width="524" height="344" xmlns="http://www.w3.org/2000/svg"><g fill="#283241" fill-rule="evenodd" opacity=".25"><path d="M556.17 333.319c-6.411.024 1.717-.47-4.282-.484-3.248.292-1.372.38.516.485 1.889.097 3.79.29.617.6-1.963-.058-4.53.098-6.932.281l-3.381.275a78.985 78.985 0 0 1-2.556.243c2.855-.458 1.152-.959-.003-1.008-2.448.358-8.001.322-12.216.738 10.347-.542-8.649 1.006.698.587-.325.21-2.91.598-5.906.944-2.996.338-6.388.778-8.363.846.253-.291 3.44-.6 6.054-.909 2.058-.73-6.56.479-8.086.199-4.865.917-15.073 2.596-22.962 3.812-3.958.531-7.334 1.046-9.163 1.373-1.83.308-2.108.534.152.632 3.392-.127 6.232-.73 9.866-1.166-10.227.891-.14-.559.693-.876 4.337-.417 11.732-1.787 10.083-1.162l-6.812 1.353 17.83-2.318 9.688-1.07 10.017-.899a478.113 478.113 0 0 1 40.237-1.441c-3.679-.04-7.358-.113-11.036-.021.64-.159 2.266-.27 4.24-.353 1.975-.036 4.294-.078 6.319-.113l-5.398-.778c3.186.085 6.24.004 5.963.261 3.898-.273 2.124-.476-.21-.746 2.067-.007 3.703-.02 5.093.025 1.39.052 2.533.094 3.618.136 2.17.072 4.104.092 7.305-.032-13.736-1.065-11.632-.02-27.374-.47l-4.308 1.056zm-52.251 3.883l-8.158 1.252 5.338-.591c-.154-.143 1.807-.485 2.82-.661m-57.583 5.922c2.88.046 5.347.106 7.627.081l6.52-.177c2.145-.013 4.327-.196 6.79-.271l3.932-.133 4.514-.24c6.312-.982-3.02-.66-.33-1.308-3.207.211-4.596.488-6.021.745-1.425.276-2.88.583-6.214.817-2.472-.348-9.741.341-16.117-.017.772.192.769.384-.701.503"/><path d="M407.575 335.969c-2.545-.59-5.038-1.397-7.435-2.064-2.406-.634-4.587-1.521-6.495-2.312.32-.019 1.216.221 2.396.612.59.196 1.25.428 1.946.685l2.198.717c-.44-.291-1.004-.538-1.684-.779-.68-.242-1.455-.54-2.35-.841-.891-.308-1.891-.65-2.987-1.06a57.717 57.717 0 0 1-1.716-.672c-.593-.248-1.189-.568-1.815-.889.422.255 2.244 1.163.75.646-3.18-1.453-5.264-2.28-6.778-3.003-1.51-.728-2.528-1.184-3.663-1.704-1.133-.521-2.4-1.076-4.294-2.207-.953-.556-2.083-1.217-3.468-2.024a28.233 28.233 0 0 1-2.219-1.419l-2.596-1.766c-2.316-1.265-4.386-2.85-4.256-2.271a298.318 298.318 0 0 1-4.143-3.423c-.864-.778-1.359-1.288-1.92-1.817-.557-.536-1.166-1.11-2.215-2.064-.517-.485-1.173-1.031-1.936-1.776l-2.767-2.735c.19.48 2.85 3.644 2.474 3.94-6.353-6.145-9.42-9.426-12.004-12.084-2.49-2.742-4.565-4.807-7.864-9.378.83.959 1.84 2.062 3.75 4.43-.42-1.545-6.146-7.16-9.684-12.336l.838.15-1.437-1.851-1.548-2.158-3.433-4.825c-1.133-1.717-2.25-3.5-3.322-5.238-.524-.875-1.043-1.738-1.546-2.575a81.943 81.943 0 0 1-1.318-2.511l1.073 1.272c-.961-1.568-1.943-3.17-2.94-4.79l-1.479-2.463-1.406-2.536-2.811-5.119c-.923-1.715-1.769-3.468-2.645-5.187-.86-1.726-1.746-3.42-2.551-5.12l-2.35-5.013c-1.568-3.251-2.933-6.397-4.226-9.256-.776-2.122-1.593-4.224-2.304-6.37-3.444-7.94-1.884-3.939-.152.628 1.77 4.55 3.846 9.613.918 3.97.056-.544-.157-1.319-.565-2.321-.385-1.013-.954-2.256-1.638-3.724-1.367-2.933-3.191-6.764-4.808-11.437-1.33-4.488 3.902 9.209 2.444 4.227-1.316-1.824-2.092-4.837-4.178-9.654.915.856-4.135-10.206-2.353-7.415-2.679-5.574-5.416-11.118-8.297-16.584-.932-2.855-3.36-7.657-5.169-11.18 4.389 8.985-1.875-2.127 2.798 8.046 3.575 7.32 8.038 17.25 12.346 27.799 4.227 10.572 8.603 21.663 12.668 31.017.794.869 2.167 3.837 3.58 6.93 1.418 3.09 3.02 6.238 3.99 7.572.007.526.518 1.988.536 2.534 6.335 11.537-1.14-2.892.626-.196 2.778 5.037 4.62 9.32 4.137 8.983 4.68 8.184.688.811 3.428 4.775.805 1.902 1.586 3.822 2.485 5.682l3.037 4.742c1.012 1.623 2.183 3.181 3.294 4.814 2.202 3.28 4.713 6.487 7.223 9.803 5.185 6.504 10.951 13.007 17.317 19.088a148.113 148.113 0 0 0 20.778 16.45c7.374 4.835 15.114 8.896 22.827 12.18l-2.14-1.468c.864.39 1.702.793 2.546 1.133l2.512.94c1.651.594 3.233 1.202 4.806 1.689l4.638 1.318 2.25.623 2.249.508 4.434 1.031c1.472.352 2.972.594 4.47.93 1.502.304 3.01.695 4.567 1.012 1.56.305 3.15.646 4.789 1.032l2.284.142 2.293.044c-2.503-.032 2.523 1.014-1.456.914 2.058.141 4.175.377 6.31.615 2.136.238 4.306.323 6.438.407-2.51-.267-5.03-.419-7.523-.82.662.02 1.331.052 1.999.093.669.022 1.337.045 1.995.069 1.317.057 2.594.145 3.76.25 1.167.101 2.222.24 3.098.343.877.092 1.572.193 2.015.296 5.665-.104 3.98-.357.587-.645-.849-.067-1.803-.144-2.778-.22l-2.891-.335c-1.85-.22-3.429-.423-4.04-.567-1.987.021-3.712-.18-5.26-.284-1.543-.13-2.9-.27-4.13-.421-2.446-.392-4.376-.836-6.284-1.271-1.913-.397-3.761-1.007-6.084-1.566-1.157-.303-2.442-.553-3.876-.925-1.434-.38-3.04-.78-4.885-1.204-9.098-2.309.812.772.215.792"/><path d="M426.595 341.173c.963.114 1.72.184 2.313.189-.817-.044-1.571-.137-2.313-.19M269.597 161.296l-2.071-3.932c-.804-1.28.38.816 2.071 3.932m177.44 181.327s0-.003-.036-.008l-.115.004.15.004m7.605-1.053c-1.408.036-2.815-.043-4.223-.075l.731.243c1.165-.04 2.33-.066 3.492-.168M245.713 123.511l-.218.141c.318.23.495.301.218-.14m-106.542-55.26l2.494.847a36.138 36.138 0 0 0-2.494-.847"/><path d="M14.087-124.857c3.762-6.932 9.2-15.913 12.053-21.017l-.094.615c2.14-3.615 9.51-15.174 4.182-8.116l-1.01 1.903c-5.205 8.557-4.37 5.837-8.719 12.355-4.891 8.09-6.783 13.265-11.01 20.471-1.721 3.23-1.656 2.62-1.332 1.567-4.021 7.392-4.74 10.706-7.09 15.953-1.34.651-3.98 6.575-6.454 13.901-2.515 7.322-4.715 16.006-6.543 21.986-.689 3.888-1.451 8.44-1.83 13.314-.379 4.87-.335 10.057.32 15.041-.226-1.32-.295-1.395-.282-.79.017.603.083 1.888.282 3.258.277 2.756.93 5.859.434 4.827.213.325.411 1.023.699 1.975.3.95.614 2.172.984 3.562.835 2.751 1.834 6.206 3.257 9.475C-5.409-7.951-1.423-2.112-.309-1.83c1.833 2.858 2.966 4.18 3.505 4.944.56.747.67.83.813.973.143.141.33.331 1.11 1.24.397.447.91 1.103 1.696 1.971.804.851 1.792 2 3.164 3.405-.163.114-1.974-1.788-2.715-2.528 4.102 4.734 7.214 6.267 10.783 10.008.607.5 1.146.942 1.622 1.332l1.296.973c.749.556 1.279.938 1.653 1.194.747.512.868.524.87.428.015-.206-.489-.771 2.683 1.183 5.324 3.75 7.333 4.967 8.64 5.925 1.312.955 1.964 1.59 4.991 3.594 1.324.036 8.062 3.928 14.015 6.275-1.455-.649-9.35-4.7-4.013-2.372 6.79 3.336 9.65 4.359 12.374 5.364l12.02 4.287c3.222 1.608-.082.375-2.764-.646-1.345-.5-2.518-.988-2.652-1.013-.133-.03.762.427 3.626 1.645-8.51-2.847-14.731-5.605-19.328-7.138 5.457 2.581 11.655 5.122 18.05 7.51 6.391 2.407 13.043 4.48 19.318 6.456 6.89 2.443-3.645-.864 1.766 1.046 12.265 4.488 19.252 5.652 29.027 9.252l-2.169-.314c6.181 1.518 21.82 7.343 33.356 10.99-1.403-.692-2.31-1.142-.768-.745-.501.873 16.114 4.908 27.023 9.855-.333-.46 2.236.277 5.753 1.452 3.491 1.242 7.94 2.903 11.306 4.401 2.305 1.2 1.696 1.21 1.594 1.342-5.414-2.625-8.198-3.527-10.688-4.288-2.485-.778-4.753-1.245-9.225-2.84 1.872.638 4.03 1.432 6.316 2.294 2.282.876 4.666 1.88 7.037 2.839 2.365.97 4.66 2.017 6.8 2.904 2.138.893 4.042 1.792 5.654 2.418l-2.65-.728c4.94 2.343 7.15 3.27 9.445 4.2 1.153.451 2.284.983 3.74 1.775 1.446.805 3.277 1.772 5.612 3.448l-1.144-.311c4.927 2.978 9.777 6.544 14.451 10.394a126.167 126.167 0 0 1 12.83 12.782c7.77 9.069 13.835 18.732 18.675 26.597.522.63-.206-1.17-1.074-3.202-.866-2.032-2.006-4.224-2.021-4.5-.755-1.163-1.45-2.277-2.161-3.311l-2.102-2.919c-.676-.926-1.313-1.822-1.957-2.67-.673-.828-1.323-1.63-1.96-2.418l-1.884-2.314c-.62-.762-1.301-1.468-1.946-2.205-1.323-1.451-2.582-2.985-4.085-4.472l.496-.28c-.393-.292-1.128-.973-1.95-1.758l-1.267-1.224c-.432-.403-.88-.774-1.271-1.115-1.58-1.358-2.472-2.054-.585.015-2.537-2.31-3.372-3.311-4.386-4.32a38.355 38.355 0 0 0-1.797-1.771c-.39-.36-.845-.764-1.393-1.234a73.5 73.5 0 0 0-2.042-1.522c.43-.017 1.607.66 2.67 1.371 1.05.726 2.041 1.418 2.23 1.262-.908-.72-1.78-1.478-2.711-2.163l-2.809-2.033c1.864 1.182-3.133-2.72-1.333-1.589-5.396-3.495-9.099-5.96-12.955-8.323-1.933-1.166-3.85-2.402-6.1-3.568l-3.566-1.883c-1.282-.636-2.676-1.257-4.182-1.94l3.293 1.628c1.096.546 2.163 1.154 3.246 1.726-.1.13-1.079-.297-2.389-.93a255.633 255.633 0 0 0-4.444-2.025 35.743 35.743 0 0 0-4.433-2.476c-1.66-.777-3.661-1.777-6.763-3.139-5.483-1.993-8.708-2.647-16.077-5.41.893.003-2.144-1.206-5.557-2.537-3.427-1.29-7.227-2.7-7.833-3.189-1.79.007-14.468-4.75-15.63-4.745-4.021-1.234-9.461-3.112-9.324-3.41l3.034.902-3.964-1.347c.4.059.275-.039.745.106-3.535-1.194-3.71-.787-8.215-2.602.086-.14 2.584.686 4.634 1.308-9.435-3.248-16.86-4.624-24.55-7.775-1.653-.248-12.573-3.884-10.43-2.48-2.872-1.2-1.574-1.315-9.564-3.925-4.75-1.04-8.819-3.18-14.904-5.1 4.06 1.227 4.089 1.166 3.986 1.094-.105-.075-.331-.19 3.25.78-5.298-2.088-13.526-4.306-22.552-8.424-.877-.54-.775-.673-1.657-1.215-1.717-.672-3.593-1.34-5.39-2.147-1.807-.785-3.57-1.637-5.045-2.683l.223.553c-5.918-3.205-14.128-7.858-19.769-12.39-1.239-.681-2.428-1.434-3.63-2.18l-1.804-1.12-1.763-1.181C14.594 13.678 9.759 9.166 5.518 4.462 1.253-.215-2.375-5.097-4.794-8.924c-2.029-3.681-4.211-9.557-3.975-9.613.198.439.432 1.046.772 1.737l1.154 2.34c-.587-1.406-1.21-2.889-1.688-4.427-.248-.765-.53-1.518-.75-2.28-.214-.764-.427-1.518-.634-2.252-.819-2.937-1.412-5.586-2.005-7.237-1.153-6.172-.259-4.6-.556-9.231-.328-3.138-.504-7.072-.15-11.223.332-4.148.934-8.517 1.821-12.55.39-2.024.905-3.954 1.312-5.769.47-1.8.904-3.471 1.289-4.953.406-1.475.733-2.769.954-3.82.246-1.047.388-1.851.38-2.362l-.688 2.05-.756 2.433c-.563 1.726-1.102 3.69-1.678 5.8-1.104 4.227-2.154 9.094-2.751 14.045.212-2.629-.337-.617.168-4.291.436-2.463.828-4.628 1.34-6.609.455-1.994.986-3.813 1.512-5.631.5-1.826 1.13-3.613 1.708-5.573.659-1.933 1.281-4.04 2.098-6.402l.396 1.383c3.232-7.901 6.204-15.467 9.338-22.502 3.132-7.027 6.421-13.5 10.27-18.996M518.07 274.214c2.758.122 5.12.24 7.305.282l6.252.055 14.618.012c6.09-.646-2.864-.817-.258-1.323-6.165.08-5.38.833-11.788 1.009-1.18-.176-3.512-.236-6.317-.238-2.805.032-6.077-.073-9.126-.28.736.21.726.401-.686.483"/><path d="M480.911 267.119c-2.432-.605-4.872-1.214-7.186-1.789-2.293-.645-4.45-1.31-6.308-1.997.62-.08 3.483.74 6.345 1.698-.853-.558-2.17-.964-3.912-1.462-.87-.25-1.847-.525-2.917-.868a51.672 51.672 0 0 1-3.44-1.39c.418.22 2.217.982.751.582l-3.951-1.464-2.694-1.082c-1.5-.586-2.512-.939-3.633-1.36-2.182-.97-4.948-1.935-12.548-6.248-2.255-1.13-4.414-2.39-4.245-1.844a38.657 38.657 0 0 1-2.553-1.744 730.52 730.52 0 0 1-1.66-1.226c-.889-.672-1.43-1.082-2.02-1.53-.596-.436-1.22-.945-2.283-1.793-1.054-.864-2.62-1.976-4.907-3.874.181.5 3.082 3.179 2.728 3.527l-2.367-1.823-2.03-1.687-3.4-2.768a256.523 256.523 0 0 0-4.815-4.1c-1.363-1.141-2.509-2.24-3.842-3.475-.66-.623-1.36-1.289-2.123-2.047l-2.44-2.666 1.56 1.47 1.065 1.043c.408.388.87.826 1.398 1.33-.135-.365-.632-.915-1.338-1.63-.692-.732-1.61-1.615-2.64-2.588a83.516 83.516 0 0 1-6.469-6.598l.832.048-1.548-1.628c-.531-.602-1.097-1.24-1.684-1.907-1.172-1.337-2.472-2.763-3.729-4.281a243.818 243.818 0 0 1-3.674-4.675c-1.204-1.544-2.224-3.154-3.174-4.609l1.159 1.102-3.273-4.278c-1.048-1.494-2.11-3.007-3.176-4.53l-1.587-2.301-1.515-2.357a16291.64 16291.64 0 0 1-3.004-4.704 433.666 433.666 0 0 1-10.215-17.822l-2.663-5.921c-3.84-7.354-2.082-3.63-.113.618 2.065 4.197 4.346 8.926 1.16 3.731.064-2.089-4.204-7.493-7.936-16.225-1.566-4.205 4.377 8.533 2.655 3.865-1.405-1.645-2.34-4.481-4.673-8.943.956.744-4.683-9.467-2.758-6.937a425.159 425.159 0 0 0-9.225-15.21c-.551-1.33-1.528-3.082-2.592-4.917-1.067-1.834-2.209-3.76-3.277-5.335 1.292 2.024 1.748 2.958 1.877 3.313.122.358-.115.16-.34-.005-.452-.327-.852-.511 1.77 4.168 4.027 6.689 9.056 15.839 13.912 25.622l7.211 14.835c1.16 2.464 2.424 4.836 3.605 7.173l1.753 3.451 1.772 3.294c.416.385 1.003 1.262 1.682 2.402l2.285 3.942c1.654 2.808 3.305 5.768 4.42 6.913.05.504.672 1.851.732 2.372 3.434 5.3 3.153 4.593 2.18 2.92-.94-1.696-2.504-4.402-1.575-3.174a86.65 86.65 0 0 1 2.058 3.287c.618 1.012 1.183 1.907 1.612 2.665.87 1.51 1.281 2.424 1.032 2.286 2.501 3.767 2.769 3.887 2.65 3.597-.096-.305-.472-1.085 1.038.665.947 1.737 1.877 3.494 2.85 5.229 4.341 5.574 9.27 11.414 14.784 17.181 5.572 5.712 11.733 11.332 18.398 16.506a160.921 160.921 0 0 0 21.232 13.975c7.399 4.095 15.067 7.467 22.601 10.24l-2.12-1.29c6.756 2.706 12.722 4.035 18.423 5.34l4.281.873 2.133.464c.716.137 1.434.275 2.158.412 1.445.287 2.903.598 4.39.945 1.488.333 3.019.63 4.589 1.01 1.465.065 2.92.199 4.388.206-2.4-.044 2.407 1.028-1.409.901 3.94.306 8.11 1.019 12.207 1.158-2.404-.279-4.809-.54-7.197-.93 2.538.124 5.196.278 7.428.526 1.116.123 2.126.262 2.962.4.838.118 1.501.236 1.923.35 5.432.043 3.826-.255.58-.63l-2.657-.3-2.765-.381c-1.77-.248-3.28-.476-3.865-.628-3.797-.18-6.65-.454-8.999-.804-2.344-.392-4.2-.803-6.029-1.226-3.641-.956-7.179-1.912-14.291-3.416-8.772-2.079.799.719.215.782m18.273 4.894c.924.101 1.651.167 2.216.205a49.755 49.755 0 0 0-2.216-.205"/><path d="M335.027 110.501a2899.49 2899.49 0 0 1-2.294-3.593c-.874-1.154.427.751 2.294 3.593m183.73 163.23s0-.004-.036-.01l-.11.001.145.009m7.324-.846c-1.352-.02-2.701-.123-4.049-.194l.694.26c1.118-.008 2.236-.011 3.355-.066M308.95 76.48l-.203.158c.319.196.494.249.203-.158M206.075 23.826l2.362.891a32.468 32.468 0 0 0-2.362-.891"/><path d="M86.165-167.613c3.347-6.782 8.239-15.58 10.779-20.581l-.063.598c1.937-3.532 8.583-14.876 3.7-7.94l-.897 1.86c-4.677 8.392-4.004 5.736-7.943 12.135-4.39 7.935-6.004 12.97-9.793 20.03-1.504 3.169-1.502 2.566-1.223 1.547-3.567 7.24-4.144 10.437-6.163 15.568-1.327.646-3.569 6.451-5.668 13.562-1.078 3.546-2.023 7.443-2.957 11.149-.873 3.722-1.705 7.264-2.487 10.163-1.137 7.458-2.15 17.66-.686 27.23-.438-2.533-.343-.263.039 2.365.143 1.32.385 2.72.526 3.67.132.949.148 1.451-.082.956.378.627.945 2.632 1.663 5.292.415 1.316.772 2.826 1.326 4.361l.788 2.37.923 2.38c2.447 6.387 6.086 12.094 7.162 12.39 1.674 2.794 2.693 4.113 3.193 4.856.518.73.601.83.737.967.134.14.307.328 1.021 1.225.356.45.85 1.077 1.544 1.96l2.894 3.39c-.162.103-1.812-1.799-2.504-2.527 3.725 4.715 6.683 6.273 9.913 10.039 2.224 2.042 3.545 3.014 4.229 3.549.697.52.814.534.823.44.008-.095-.092-.298.168-.213.254.091.875.459 2.36 1.45 4.935 3.828 6.804 5.083 8.011 6.062 1.22.965 1.8 1.627 4.616 3.678 1.286.06 7.563 4.095 13.184 6.564-1.365-.685-8.766-4.883-3.742-2.45 6.369 3.472 9.074 4.555 11.647 5.618l11.36 4.54c3.02 1.674-.097.37-2.629-.708-1.27-.53-2.378-1.036-2.505-1.067-.128-.028.714.437 3.411 1.718-8.056-3.023-13.908-5.914-18.26-7.543 5.127 2.69 10.966 5.365 17.01 7.882 6.04 2.536 12.34 4.753 18.286 6.862 6.513 2.593-3.466-.943 1.65 1.084 11.59 4.745 18.26 6.06 27.504 9.849l-2.073-.36c5.88 1.642 20.667 7.764 31.626 11.574-1.323-.707-2.178-1.168-.706-.752-.517.854 15.302 5.158 25.657 10.123-.306-.457 2.148.284 5.5 1.467 3.33 1.238 7.568 2.893 10.785 4.344 2.197 1.175 1.61 1.189 1.508 1.321-5.17-2.555-7.82-3.468-10.206-4.215-2.378-.763-4.54-1.262-8.805-2.856 7.18 2.492 18.535 7.762 24.643 10.298l-2.549-.684c4.731 2.265 6.875 3.108 9.081 3.982 1.106.43 2.214.895 3.616 1.64.705.366 1.49.792 2.39 1.306a41.24 41.24 0 0 1 3.062 1.883l-1.111-.258c2.356 1.435 4.814 2.826 7.168 4.448 1.182.802 2.403 1.563 3.572 2.41l3.508 2.564c4.608 3.537 9.124 7.29 13.159 11.35l1.538 1.487c.488.515.976 1.028 1.463 1.539.968 1.025 1.93 2.039 2.883 3.044l2.704 3.092c.89 1.018 1.785 2.01 2.595 3.047 1.647 2.051 3.312 3.987 4.766 5.955 1.49 1.94 2.958 3.77 4.252 5.57.545.562-.257-1.128-1.286-2.979-1.049-1.835-2.26-3.879-2.308-4.134-.794-1.067-1.611-2.03-2.392-2.945a8918.98 8918.98 0 0 1-2.24-2.621c-1.435-1.666-2.882-3.087-4.207-4.5l-.996-1.04-1.03-.983-2.037-1.95c-1.332-1.327-2.776-2.57-4.282-3.924l.47-.322c-.399-.25-1.148-.849-1.986-1.544l-2.632-2.012c-1.593-1.202-2.491-1.81-.566.067-2.547-2.083-3.499-2.883-4.486-3.841a34.38 34.38 0 0 0-1.807-1.613c-.78-.651-1.88-1.385-3.452-2.435.423-.053 1.559.568 2.637 1.16 1.09.574 2.043 1.226 2.23 1.044a46.608 46.608 0 0 0-2.737-1.883l-2.773-1.823c.916.522.142-.098-.643-.724-.799-.603-1.623-1.19-.708-.73-2.67-1.535-4.858-2.944-6.923-4.12l-2.923-1.782c-.94-.583-1.883-1.104-2.81-1.66-1.86-1.104-3.729-2.229-5.885-3.343l-3.426-1.782a167.733 167.733 0 0 0-4.008-1.852c2.102 1.04 4.208 2.072 6.271 3.198-.1.13-1.04-.27-2.3-.866l-4.263-1.933a35.604 35.604 0 0 0-4.232-2.403c-1.578-.766-3.498-1.72-6.444-3.081-5.232-1.969-8.323-2.627-15.328-5.432.86.01-2.023-1.216-5.262-2.57-3.248-1.333-6.857-2.773-7.421-3.27-1.724-.019-13.735-4.948-14.847-4.973-3.823-1.292-8.975-3.273-8.83-3.564l2.882.954-3.755-1.415c.381.066.264-.033.71.12-3.348-1.257-3.537-.85-7.79-2.75.09-.14 2.455.736 4.402 1.392-8.936-3.42-16.017-4.95-23.272-8.253-1.58-.284-11.915-4.15-9.92-2.704-2.708-1.261-1.454-1.34-9.017-4.124-4.524-1.146-8.334-3.368-14.103-5.41 3.849 1.316 3.885 1.242 3.786 1.174-.097-.078-.307-.197 3.09.852-4.998-2.19-12.809-4.594-21.295-8.891-.817-.557-.71-.686-1.53-1.245-1.624-.703-3.392-1.418-5.084-2.259-1.703-.817-3.354-1.713-4.718-2.783l.183.553c-5.53-3.321-13.198-8.124-18.39-12.724-1.166-.698-2.259-1.488-3.39-2.236-1.138-.744-2.233-1.543-3.325-2.35-3.823-3.88-8.261-8.406-12.155-13.067-3.918-4.638-7.258-9.417-9.504-13.132-1.847-3.579-3.886-9.23-3.65-9.288.326.865 1.035 2.279 1.809 3.932-.53-1.363-1.127-2.787-1.564-4.27-.236-.734-.471-1.467-.706-2.192l-.59-2.166c-.42-1.4-.718-2.752-1.046-3.934-.35-1.176-.614-2.211-.915-2.999a72.354 72.354 0 0 1-.385-1.887c-.083-.535-.126-.982-.163-1.363a14.332 14.332 0 0 1-.067-1.727c.002-.917.142-1.65-.007-3.875-.967-6.006-.504-15.063.912-22.844 1.314-7.809 3.268-14.386 3.117-16.35l-1.215 4.35c-.447 1.681-.92 3.578-1.39 5.62-.928 4.087-1.724 8.796-2.138 13.556.06-2.531-.392-.586.002-4.119.597-4.76 1.394-8.315 2.293-11.83l.676-2.656.764-2.745c.488-1.898 1.12-3.906 1.738-6.223l.486 1.326c2.767-7.702 5.36-15.053 8.073-21.92 2.725-6.854 5.625-13.184 9.132-18.582M626.47 128.932c-1.126-.255-2.26-.49-3.38-.714-1.117-.246-2.22-.489-3.294-.724-2.147-.473-4.171-.94-5.9-1.538.283-.057 1.093.074 2.165.32 1.078.224 2.422.547 3.763.918-.803-.502-2.043-.784-3.676-1.147-1.623-.396-3.64-.875-5.985-1.722.399.176 2.107.749.725.499-5.925-1.799-7.624-2.194-9.744-2.808a100.681 100.681 0 0 1-4.087-1.25c-1.837-.655-4.37-1.544-8.093-3.073-2.218-.707-4.36-1.555-4.14-1.05-8.218-4.062-4.043-2.108-13.749-7.22.253.421 3.297 2.431 3.02 2.83a145.353 145.353 0 0 1-4.565-2.445l-3.556-1.909a204.893 204.893 0 0 0-5.108-2.794c-1.44-.775-2.695-1.525-4.132-2.378a80.573 80.573 0 0 1-2.307-1.432 147.43 147.43 0 0 1-2.727-1.906c.97.558 2.101 1.234 4.39 2.641-.188-.313-.74-.715-1.515-1.222-.768-.52-1.772-1.124-2.899-1.785-2.272-1.286-4.935-2.958-7.169-4.574l.78-.168c-4.21-2.827-11.478-7.819-15.977-12.403l1.29.717c-10.26-7.978-20.542-19.252-27.74-27.632-1.174-1.608-2.301-3.252-3.454-4.873a158.092 158.092 0 0 1-2.416-2.871c-.42-.496-.508-.565-.37-.335.139.229.504.753.992 1.439l1.788 2.36c2.579 3.445 5.557 7.248 1.67 3.203-.112-.998-1.41-2.481-3.321-4.606-1.885-2.146-4.292-5.014-6.77-8.603-2.137-3.53 5.505 6.9 3.142 2.974-1.586-1.208-2.936-3.61-5.869-7.202 1.02.487-5.837-7.779-3.634-5.847l-1.337-1.552-1.407-1.494-2.812-2.986-5.612-5.956c-1.54-2.152-4.842-5.573-7.272-8.085 6.016 6.46-2.205-1.235 4.353 6.148l1.944 2.019 1.969 2.272 4.25 4.958c.74.865 1.493 1.75 2.26 2.646.381.45.767.902 1.156 1.357.367.473.736.948 1.11 1.427l4.53 5.879a998.214 998.214 0 0 1 9.173 12.099c1.553 1.97 3.087 3.912 4.58 5.803l4.47 5.4c.897.529 2.855 2.65 4.847 4.897 2.01 2.23 4.19 4.46 5.381 5.303.118.469.938 1.564 1.098 2.022 8.436 7.996-1.685-2.182.528-.39 1.858 1.732 3.424 3.409 4.51 4.593 1.097 1.17 1.654 1.907 1.392 1.845 6.14 5.623.793.5 4.224 3.02l3.628 4.117c5.074 4.071 10.72 8.268 16.868 12.285a213.766 213.766 0 0 0 19.743 11.298 228.836 228.836 0 0 0 21.413 9.438c7.267 2.767 14.568 5.168 21.647 7.272l-2.025-1.067c6.408 1.93 11.895 3.077 17.204 4.05 5.299 1.032 10.414 1.934 16.15 3.494 1.346.112 2.699.166 4.047.251-2.207-.117 2.167 1.097-1.336.863 1.805.208 3.656.522 5.527.824 1.874.279 3.764.561 5.636.757l-6.567-1.2c4.672.292 9.729 1.257 11.246 1.8 9.958.778-5.783-1.567-7.884-2.364-6.995-.59-10.442-1.429-13.788-2.338-1.675-.45-3.331-.893-5.38-1.442-2.055-.518-4.524-1.042-7.814-1.71-8.183-1.549.758.638.202.777M466.178 10.529c-.724-.754-1.528-1.689-2.724-2.822-.526-.415-.389-.272.17.24.558.511 1.456 1.468 2.554 2.582M229.994-251.818c2.486-6.498 6.187-14.993 8.099-19.79l.008.562c.765-1.689 2.395-5.287 3.352-7.619 1.006-2.307 1.305-3.367-.693-.006l-.638 1.796c-3.559 8.1-3.29 5.543-6.32 11.766a116.018 116.018 0 0 0-2.174 5.258l-1.601 4.678a132.692 132.692 0 0 1-1.589 4.482c-.544 1.524-1.11 3.11-1.826 4.81-1.12 3.03-1.186 2.47-1.027 1.51-1.403 3.44-1.987 5.975-2.558 8.196-.55 2.226-1.031 4.167-1.643 6.635-.607.35-1.274 1.907-2.001 4.204-.182.574-.37 1.193-.553 1.853l-.477 2.113-.993 4.752c-.38 1.661-.595 3.429-.874 5.195l-.84 5.282a124.215 124.215 0 0 1-.675 5.054c-.255 1.604-.558 3.105-.755 4.47-.48 6.936-.531 16.337 1.218 25.047-.62-2.293-.294-.232.081 2.179.287 2.427 1.067 5.115.534 4.237.427.552.995 2.38 1.631 4.832.344 1.22.853 2.554 1.302 3.983l.711 2.184c.245.738.458 1.498.789 2.209.612 1.443 1.224 2.88 1.8 4.235.295.673.582 1.327.857 1.95.321.6.645 1.163.948 1.689 1.213 2.098 2.184 3.54 2.68 3.706.63 1.364 1.3 2.282 1.727 3.027.455.73.764 1.23.98 1.58.44.698.517.79.628.929.274.242.395.865 4.58 6.388-.145.075-1.568-1.755-2.157-2.466 1.59 2.244 2.947 3.873 4.334 5.301 1.42 1.404 2.72 2.74 4.012 4.647.9 1.06 1.688 1.788 2.288 2.353.6.565 1.023.955 1.326 1.218.604.525.715.543.733.453.04-.18-.28-.787 2.224 1.338.517.497.973.978 1.428 1.384l1.266 1.102 1.93 1.703c1.052.945 1.686 1.549 2.189 2.061.99 1.046 1.5 1.656 3.903 3.78.623.037 2.267 1.135 4.348 2.607a127.548 127.548 0 0 0 7.213 4.478c-1.16-.795-7.644-5.18-3.202-2.591 2.793 1.822 4.715 3.154 6.32 4.02a112.91 112.91 0 0 0 3.904 2.06l3.785 1.928c1.518.792 3.507 1.683 6.287 3.095 5.26 3.577-11.056-5.72-1.6-.139-1.786-.85-3.494-1.6-5.027-2.427l-4.292-2.318a157.988 157.988 0 0 0-3.721-1.942c-1.151-.577-2.162-1.174-3.134-1.626 2.195 1.516 4.654 2.878 7.161 4.33l3.82 2.191c1.291.733 2.65 1.37 3.988 2.064 2.698 1.342 5.39 2.77 8.13 4.024l8.104 3.696c5.764 2.901-3.116-1.114 1.412 1.155 10.217 5.354 16.305 6.919 24.481 11.13l-1.888-.458c2.64.965 7.233 3.136 12.414 5.549 5.172 2.428 10.91 5.155 15.838 7.213-1.167-.742-1.92-1.226-.588-.765-.553.817 13.74 5.647 23.05 10.631-.495-.931 8.934 3.058 14.837 5.74 2 1.113 1.443 1.156 1.346 1.28-9.458-4.797-9.577-3.752-17.324-6.97 3.254 1.28 7.438 3.255 11.54 5.142 2.052.941 4.077 1.87 5.937 2.72 1.853.864 3.553 1.623 4.968 2.19l-2.357-.614c4.325 2.154 6.348 2.837 8.401 3.589 2.04.778 4.085 1.683 8.457 4.233l-1.054-.156c4.555 2.271 9.072 5.063 13.7 7.757 1.166.656 2.285 1.395 3.401 2.14l3.356 2.217 3.346 2.206c.552.371 1.12.718 1.655 1.108l1.59 1.184c2.12 1.566 4.212 3.114 6.263 4.631l1.535 1.124 1.452 1.196 2.843 2.346c1.885 1.525 3.71 3.004 5.46 4.422 1.67 1.51 3.283 2.938 4.83 4.272 1.226.784-4.24-5.443-4.463-5.855-3.844-3.039-6.891-5.408-9.782-7.49-2.987-1.96-5.736-3.744-8.809-5.847l.406-.392c-.759-.393-3.11-1.67-4.714-2.561-1.613-.878-2.52-1.31-.529.16-2.62-1.53-3.514-2.256-4.509-3.044-.499-.39-1.015-.805-1.796-1.323-.797-.49-1.853-1.088-3.4-1.89.788-.202 4.438 1.788 4.715 1.47-1.767-1.004-3.6-1.889-5.395-2.838 1.783.771-3.051-1.993-1.326-1.255-5.018-2.587-8.498-4.37-11.953-6.338-1.738-.957-3.45-2.005-5.444-2.998a172.336 172.336 0 0 0-6.844-3.296l5.763 2.928c-.19.267-3.498-1.385-6.05-2.527-1.323-.898-2.415-1.54-3.838-2.309l-5.86-2.948c-4.761-1.93-7.587-2.626-13.914-5.484 1.6.054-10.359-5.065-11.326-6.063-1.605-.057-12.327-5.326-13.352-5.408-3.425-1.427-8.017-3.601-7.852-3.882.496.203 1.515.624 2.581 1.063l-3.347-1.555c.347.08.248-.022.65.147-2.988-1.38-3.204-.99-6.966-3.042.098-.134 2.208.83 3.951 1.561-7.97-3.732-14.348-5.664-20.747-9.25-1.457-.321-10.604-4.729-8.916-3.19-2.37-1.4-1.197-1.407-7.913-4.553-2.038-.682-3.88-1.629-5.864-2.673-1.995-1.025-4.055-2.277-6.642-3.401 6.89 2.924.097-.11 6.152 2.38-2.198-1.233-5.008-2.577-8.264-4.099-.81-.388-1.66-.764-2.508-1.198l-2.582-1.395a169.156 169.156 0 0 1-5.473-3.117c-.71-.564-.603-.673-1.289-1.282-2.804-1.625-6.24-3.239-8.566-5.422l.098.555a250.286 250.286 0 0 0-3.83-2.945c-.685-.514-1.385-1.042-2.094-1.576-.713-.53-1.434-1.07-2.104-1.675a7303.557 7303.557 0 0 0-4.071-3.534c-.66-.588-1.312-1.162-1.93-1.74-.58-.62-1.146-1.222-1.693-1.804l-2.947-2.303c-.984-.772-1.995-1.522-2.893-2.386-.77-.993-1.59-2.009-2.45-3.036l-1.315-1.548-.675-.779-.625-.832a188.916 188.916 0 0 0-2.585-3.327c-.873-1.11-1.803-2.18-2.562-3.353-.81-1.14-1.612-2.268-2.392-3.368l-1.177-1.62c-.366-.546-.688-1.104-1.028-1.639l-1.941-3.08c-.611-.977-1.25-1.867-1.69-2.76a294.304 294.304 0 0 1-2.296-5.537c-.355-.847-.52-1.644-.688-2.19-.151-.554-.224-.89-.184-.9l.653 1.55c.135.31.262.653.429 1.001l.555 1.082c-.583-1.217-.944-2.6-1.383-3.952l-1.267-3.992c-.68-2.609-1.26-4.937-1.944-6.35-.42-1.326-.498-2.276-.596-2.974a12.663 12.663 0 0 1-.092-1.594c.005-.849.075-1.527-.206-3.561-1.032-5.485-1.47-13.803-.663-21.055l.192-2.67.326-2.524c.209-1.63.39-3.143.525-4.487.105-1.349.312-2.508.383-3.453.085-.945.093-1.669.007-2.117l-.79 4.081-.743 5.277-.405 2.957c-.074 1.02-.147 2.064-.223 3.125l-.206 3.229c-.033.544-.064 1.09-.095 1.638-.011.548.01 1.098.015 1.648-.17-2.328-.488-.51-.334-3.778.119-2.204.24-4.14.398-5.938l.751-5.093.368-2.495c.115-.844.322-1.69.479-2.578a183.52 183.52 0 0 0 1.018-5.86l.638 1.185.324-1.37.376-1.349.708-2.681c.47-1.777.834-3.555 1.297-5.285.475-1.729.923-3.44 1.355-5.13.424-1.695.841-3.367 1.354-4.986 1.863-6.526 3.953-12.587 6.734-17.82"/></g></svg>