<?xml version="1.0" encoding="UTF-8" standalone="no"?>
<!-- Generator: Adobe Illustrator 24.0.1, SVG Export Plug-In . SVG Version: 6.00 Build 0)  -->

<svg
   xmlns:dc="http://purl.org/dc/elements/1.1/"
   xmlns:cc="http://creativecommons.org/ns#"
   xmlns:rdf="http://www.w3.org/1999/02/22-rdf-syntax-ns#"
   xmlns:svg="http://www.w3.org/2000/svg"
   xmlns="http://www.w3.org/2000/svg"
   xmlns:sodipodi="http://sodipodi.sourceforge.net/DTD/sodipodi-0.dtd"
   xmlns:inkscape="http://www.inkscape.org/namespaces/inkscape"
   version="1.1"
   id="Layer_1"
   x="0px"
   y="0px"
   viewBox="0 0 311.32999 135.1075"
   xml:space="preserve"
   sodipodi:docname="WeFIX Logo-03.svg"
   width="311.32999"
   height="135.1075"
   inkscape:version="0.92.5 (2060ec1f9f, 2020-04-08)"><metadata
   id="metadata25"><rdf:RDF><cc:Work
       rdf:about=""><dc:format>image/svg+xml</dc:format><dc:type
         rdf:resource="http://purl.org/dc/dcmitype/StillImage" /><dc:title></dc:title></cc:Work></rdf:RDF></metadata><defs
   id="defs23" /><sodipodi:namedview
   pagecolor="#ffffff"
   bordercolor="#666666"
   borderopacity="1"
   objecttolerance="10"
   gridtolerance="10"
   guidetolerance="10"
   inkscape:pageopacity="0"
   inkscape:pageshadow="2"
   inkscape:window-width="1366"
   inkscape:window-height="706"
   id="namedview21"
   showgrid="false"
   fit-margin-top="0"
   fit-margin-left="0"
   fit-margin-right="0"
   fit-margin-bottom="0"
   inkscape:zoom="2.7628411"
   inkscape:cx="155.66"
   inkscape:cy="73.220701"
   inkscape:window-x="0"
   inkscape:window-y="25"
   inkscape:window-maximized="1"
   inkscape:current-layer="Layer_1" />
<style
   type="text/css"
   id="style2">
	.st0{fill:#00B695;}
	.st1{fill:#FFFFFF;}
	.st2{fill:#B5B5B5;}
	.st3{fill:#1A343B;}
</style>
<g
   id="g18"
   transform="translate(-288.81,-159.1725)">
	<path
   class="st0"
   d="m 350.92,280.59 -12.66,-46.95 -12.82,46.95 c -1,3.56 -1.79,6.12 -2.38,7.66 -0.59,1.55 -1.61,2.94 -3.07,4.17 -1.46,1.23 -3.4,1.84 -5.82,1.84 -1.96,0 -3.57,-0.37 -4.83,-1.1 -1.26,-0.73 -2.29,-1.76 -3.07,-3.1 -0.78,-1.34 -1.42,-2.92 -1.92,-4.75 -0.5,-1.83 -0.94,-3.53 -1.33,-5.1 l -13.03,-52.72 c -0.78,-3.06 -1.18,-5.39 -1.18,-7 0,-2.03 0.71,-3.74 2.14,-5.13 1.42,-1.39 3.19,-2.08 5.29,-2.08 2.88,0 4.82,0.93 5.82,2.78 1,1.85 1.87,4.54 2.62,8.07 l 10.25,45.72 11.48,-42.78 c 0.86,-3.28 1.62,-5.77 2.3,-7.48 0.68,-1.71 1.78,-3.19 3.31,-4.43 1.53,-1.25 3.61,-1.87 6.25,-1.87 2.67,0 4.75,0.65 6.22,1.95 1.48,1.3 2.5,2.72 3.07,4.25 0.57,1.53 1.33,4.06 2.3,7.58 l 11.59,42.78 10.25,-45.72 c 0.5,-2.39 0.97,-4.25 1.42,-5.61 0.44,-1.35 1.21,-2.56 2.3,-3.63 1.08,-1.07 2.66,-1.6 4.73,-1.6 2.06,0 3.82,0.69 5.26,2.06 1.44,1.37 2.16,3.09 2.16,5.15 0,1.46 -0.39,3.79 -1.17,7 l -13.03,52.72 c -0.89,3.56 -1.63,6.17 -2.22,7.82 -0.59,1.66 -1.58,3.11 -2.99,4.35 -1.41,1.25 -3.39,1.87 -5.96,1.87 -2.42,0 -4.36,-0.61 -5.82,-1.82 -1.46,-1.21 -2.47,-2.57 -3.04,-4.09 -0.58,-1.5 -1.39,-4.09 -2.42,-7.76 z"
   id="path4"
   inkscape:connector-curvature="0"
   style="fill:#00b695" />
	<path
   class="st0"
   d="m 435.05,268.2 h -28.52 c 0.04,3.31 0.7,6.23 2,8.76 1.3,2.53 3.03,4.43 5.18,5.72 2.15,1.28 4.53,1.92 7.13,1.92 1.74,0 3.34,-0.2 4.78,-0.61 1.44,-0.41 2.84,-1.05 4.19,-1.92 1.35,-0.87 2.6,-1.81 3.74,-2.8 1.14,-1 2.62,-2.35 4.43,-4.06 0.75,-0.64 1.82,-0.96 3.21,-0.96 1.5,0 2.71,0.41 3.63,1.23 0.93,0.82 1.39,1.98 1.39,3.47 0,1.32 -0.52,2.86 -1.55,4.62 -1.03,1.76 -2.59,3.45 -4.67,5.07 -2.08,1.62 -4.7,2.96 -7.85,4.03 -3.15,1.07 -6.77,1.6 -10.87,1.6 -9.37,0 -16.65,-2.67 -21.84,-8.01 -5.2,-5.34 -7.8,-12.59 -7.8,-21.74 0,-4.31 0.64,-8.31 1.92,-11.99 1.28,-3.69 3.15,-6.85 5.61,-9.48 2.46,-2.63 5.48,-4.66 9.08,-6.06 3.6,-1.41 7.58,-2.11 11.96,-2.11 5.7,0 10.58,1.2 14.66,3.61 4.08,2.4 7.13,5.51 9.16,9.32 2.03,3.81 3.04,7.69 3.04,11.64 0,3.67 -1.05,6.04 -3.15,7.13 -2.1,1.08 -5.06,1.62 -8.86,1.62 z m -28.53,-8.28 h 26.44 c -0.36,-4.98 -1.7,-8.71 -4.03,-11.19 -2.33,-2.47 -5.4,-3.71 -9.21,-3.71 -3.63,0 -6.61,1.26 -8.95,3.77 -2.33,2.51 -3.75,6.22 -4.25,11.13 z"
   id="path6"
   inkscape:connector-curvature="0"
   style="fill:#00b695" />
	<path
   class="st3"
   d="M 507.15,226.86 H 475.9 v 20.03 h 26.12 c 2.42,0 4.23,0.54 5.42,1.63 1.19,1.09 1.79,2.54 1.79,4.35 0,1.82 -0.61,3.26 -1.82,4.33 -1.21,1.07 -3.01,1.6 -5.39,1.6 H 475.9 v 25.8 c 0,3.28 -0.74,5.71 -2.22,7.29 -1.48,1.58 -3.37,2.38 -5.69,2.38 -2.35,0 -4.26,-0.8 -5.74,-2.4 -1.48,-1.6 -2.22,-4.02 -2.22,-7.26 v -60.25 c 0,-2.28 0.34,-4.14 1.01,-5.58 0.68,-1.44 1.74,-2.49 3.18,-3.15 1.44,-0.66 3.29,-0.99 5.53,-0.99 h 37.39 c 2.53,0 4.41,0.56 5.64,1.68 1.23,1.12 1.84,2.59 1.84,4.41 0,1.85 -0.61,3.34 -1.84,4.46 -1.22,1.11 -3.1,1.67 -5.63,1.67 z"
   id="path8"
   inkscape:connector-curvature="0"
   style="fill:#1a343b" />
	<path
   class="st3"
   d="m 531.35,228.2 c -2.03,0 -3.76,-0.62 -5.21,-1.87 -1.44,-1.25 -2.16,-3.01 -2.16,-5.29 0,-2.06 0.74,-3.77 2.22,-5.1 1.48,-1.34 3.2,-2 5.15,-2 1.89,0 3.56,0.61 5.02,1.82 1.46,1.21 2.19,2.97 2.19,5.29 0,2.24 -0.71,4 -2.14,5.26 -1.42,1.26 -3.12,1.89 -5.07,1.89 z m 7.21,15.06 v 42.14 c 0,2.92 -0.69,5.13 -2.08,6.62 -1.39,1.5 -3.15,2.24 -5.29,2.24 -2.14,0 -3.87,-0.77 -5.21,-2.3 -1.34,-1.53 -2,-3.72 -2,-6.57 v -41.71 c 0,-2.88 0.67,-5.06 2,-6.52 1.33,-1.46 3.07,-2.19 5.21,-2.19 2.14,0 3.9,0.73 5.29,2.19 1.38,1.47 2.08,3.5 2.08,6.1 z"
   id="path10"
   inkscape:connector-curvature="0"
   style="fill:#1a343b" />
	<path
   class="st3"
   d="m 585.24,288.23 -10.58,-15.54 -10.84,15.54 c -1.57,2.17 -2.89,3.72 -3.98,4.65 -1.09,0.93 -2.47,1.39 -4.14,1.39 -1.85,0 -3.43,-0.58 -4.73,-1.74 -1.3,-1.16 -1.95,-2.48 -1.95,-3.98 0,-1.53 1,-3.72 2.99,-6.57 l 13.19,-18.91 -11.7,-15.76 c -2.03,-2.6 -3.04,-4.86 -3.04,-6.78 0,-1.5 0.6,-2.79 1.82,-3.9 1.21,-1.1 2.79,-1.66 4.75,-1.66 1.71,0 3.12,0.48 4.25,1.44 1.12,0.96 2.43,2.48 3.93,4.54 l 9.45,12.93 9.19,-12.93 c 1.53,-2.14 2.86,-3.67 3.98,-4.59 1.12,-0.93 2.52,-1.39 4.19,-1.39 1.92,0 3.52,0.54 4.78,1.63 1.26,1.09 1.9,2.39 1.9,3.93 0,1.1 -0.26,2.16 -0.77,3.18 -0.52,1.01 -1.31,2.22 -2.38,3.61 l -11.7,15.76 13.19,18.91 c 2.06,2.96 3.1,5.18 3.1,6.68 0,1.53 -0.64,2.85 -1.92,3.95 -1.28,1.1 -2.87,1.66 -4.75,1.66 -1.67,0 -3.09,-0.48 -4.25,-1.44 -1.16,-0.98 -2.49,-2.51 -3.98,-4.61 z"
   id="path12"
   inkscape:connector-curvature="0"
   style="fill:#1a343b" />
	<g
   id="g16">
		<path
   class="st0"
   d="m 372.46,200.24 c -1.52,0 -3.05,-0.49 -4.33,-1.51 l -29.95,-23.64 -29.95,23.64 c -3.03,2.4 -7.44,1.88 -9.83,-1.16 -2.4,-3.03 -1.88,-7.44 1.16,-9.83 l 34.29,-27.06 c 2.54,-2.01 6.13,-2.01 8.67,0 l 34.29,27.06 c 3.04,2.4 3.55,6.8 1.16,9.83 -1.39,1.76 -3.44,2.67 -5.51,2.67 z"
   id="path14"
   inkscape:connector-curvature="0"
   style="fill:#00b695" />
	</g>
</g>
<rect
   style="fill:none;fill-opacity:1;stroke-width:0.93497407"
   id="rect29"
   width="314.16934"
   height="137.90152"
   x="-1.4246545"
   y="-1.5436548"
   ry="6.0102334" /></svg>